<svg width="191" height="149" viewBox="0 0 191 149" fill="none" xmlns="http://www.w3.org/2000/svg">
<path fill-rule="evenodd" clip-rule="evenodd" d="M74.4652 59.9629L3.6377 87.0917L32.3817 149L103.685 122.011L74.1475 59.9629H74.4652Z" fill="black"/>
<path fill-rule="evenodd" clip-rule="evenodd" d="M102.638 48.9441C99.8094 48.3864 97.1373 47.1312 95.0936 45.1789C93.0505 43.3654 91.6358 40.9949 91.0067 38.4844C90.3783 35.9739 90.535 33.3245 91.4785 30.9534C92.4214 28.5823 94.1506 26.3512 96.5082 24.8171C98.7086 23.1436 101.538 22.1672 104.367 21.8883C107.197 21.6095 110.183 22.0277 112.856 23.1436C115.528 24.2589 117.728 26.0723 119.3 28.164C120.872 30.3957 121.658 32.9057 121.658 35.4162C121.658 37.7873 121.029 40.1578 119.615 42.2501L145.392 32.2086L174.628 94.4094L104.053 121.745L92.8932 97.6169C92.1069 100.127 90.5349 102.359 88.3346 104.172C86.1342 105.985 83.4621 107.101 80.6327 107.519C77.8033 107.937 74.8167 107.658 71.9873 106.822C69.3152 105.846 66.8003 104.311 65.0717 102.22C63.3425 100.127 62.2423 97.6169 61.9278 95.107C61.6133 92.4571 62.2423 89.9465 63.4998 87.576C64.7572 85.2049 66.8003 83.2526 69.3152 81.9973C71.8307 80.6027 74.6594 79.905 77.6461 79.905C80.1609 79.905 82.6758 80.4632 85.0341 81.5785L74.9739 59.8226L102.638 48.9441Z" fill="black"/>
<path fill-rule="evenodd" clip-rule="evenodd" d="M79.9223 45.4277L9.09473 72.5137L37.8387 134.465L109.142 107.517L79.6045 45.5666H79.9223V45.4277Z" fill="#EEBF10"/>
<path fill-rule="evenodd" clip-rule="evenodd" d="M120.057 112.295L84.9028 36.3418L0 69.4135L34.5261 145.367L120.057 112.295ZM80.509 46.0108L10.5147 73.3375L38.9205 135.838L109.385 108.652L80.195 46.1509H80.509V46.0108Z" fill="black"/>
<path fill-rule="evenodd" clip-rule="evenodd" d="M108.759 34.4835C105.878 33.9237 103.157 32.6649 101.076 30.7072C98.9959 28.8892 97.5553 26.5115 96.9148 23.9939C96.2749 21.4769 96.4351 18.8196 97.3952 16.4419C98.3554 14.0647 100.116 11.8268 102.517 10.2884C104.757 8.61022 107.638 7.63106 110.52 7.35145C113.401 7.07185 116.442 7.49125 119.163 8.61022C121.884 9.72919 124.124 11.5472 125.725 13.6447C127.326 15.8827 128.126 18.4002 128.126 20.9172C128.126 23.1551 127.326 25.3925 126.045 27.4906L152.134 17.421L181.905 79.7958L110.04 107.207L98.3553 83.2925C97.2351 86.0896 95.1546 88.4668 92.4337 90.2848C89.7128 91.9635 86.3513 92.9421 82.9905 92.9421C78.829 92.9421 74.8276 91.5435 71.9466 88.8868C69.0655 86.3692 67.3047 82.8725 67.3047 79.2366C67.3047 75.6006 68.9054 72.1039 71.9466 69.5864C74.9871 67.0694 78.829 65.531 82.9905 65.531C85.5513 65.531 88.1121 66.0902 90.5128 67.2092L80.2689 45.3919L108.759 34.4835Z" fill="#2A8C5C"/>
<path fill-rule="evenodd" clip-rule="evenodd" d="M78.4222 59.0502C75.1253 59.7536 71.9849 61.0193 69.1586 62.9878C66.4894 64.8157 64.2915 67.2064 62.7212 70.0189C61.151 72.8314 60.2091 75.7844 60.052 78.878C59.895 81.9716 60.5233 85.0652 61.7794 87.8776C63.0354 90.6901 65.0769 93.2208 67.589 95.3305C70.1011 97.4395 73.0838 98.9863 76.3814 99.9709C79.6789 100.955 83.1329 101.237 86.5869 100.815C90.0415 100.393 93.3384 99.4086 96.1647 97.8618L105.428 118.111L191 84.6435L155.829 8.28647L135.418 16.3016C134.005 11.2395 130.55 6.88025 125.84 3.78666C120.973 0.833631 115.163 -0.432037 109.354 0.13023C103.545 0.693059 98.2062 3.22439 94.2809 7.02081C90.3557 10.9584 88.1571 15.8799 88 21.0831C88 25.4424 89.4132 29.6605 92.2394 33.1763L70.2582 41.7543L78.4222 59.0502ZM109.039 34.7231C106.214 34.1603 103.545 32.8952 101.503 30.9262C99.4622 28.9577 98.0491 26.7075 97.4208 24.1767C96.793 21.6454 96.9501 18.9735 97.892 16.5833C98.8339 14.1925 100.561 11.9423 102.916 10.3955C105.114 8.70818 107.94 7.72421 110.767 7.44252C113.593 7.16138 116.576 7.58308 119.246 8.70818C121.915 9.83327 124.113 11.6612 125.683 13.7708C127.253 16.0205 128.038 18.5518 128.038 21.0831C127.881 23.3327 127.253 25.5829 125.997 27.692L151.59 17.5673L180.794 80.2842L110.296 107.845L98.8339 83.7995C97.7349 86.6119 95.6941 89.0027 93.0249 90.8306C90.3557 92.518 87.0581 93.5025 83.7606 93.5025C79.6789 93.5025 75.753 92.0963 72.9274 89.4244C70.1011 86.8931 68.3738 83.3778 68.3738 79.7214C68.3738 76.0655 69.944 72.5497 72.9274 70.0189C75.753 67.4876 79.6789 65.9408 83.7606 65.9408C86.2733 65.9408 88.7855 66.503 91.1405 67.6281L81.0914 45.6913L109.039 34.7231Z" fill="black"/>
</svg>
