<svg width="391" height="114" viewBox="0 0 391 114" fill="none" xmlns="http://www.w3.org/2000/svg">
<path fill-rule="evenodd" clip-rule="evenodd" d="M60.3431 46L3 66.7189L26.2716 114L84 93.3877L60.0858 46H60.3431Z" fill="black"/>
<path fill-rule="evenodd" clip-rule="evenodd" d="M82.9128 37.9099C80.6304 37.4803 78.4743 36.5131 76.8253 35.009C75.1767 33.6118 74.0353 31.7854 73.5277 29.8511C73.0207 27.9168 73.1471 25.8756 73.9084 24.0487C74.6692 22.2219 76.0645 20.5029 77.9668 19.3209C79.7422 18.0316 82.0251 17.2793 84.3081 17.0644C86.5911 16.8496 89.0009 17.1719 91.157 18.0316C93.3131 18.8909 95.0885 20.2881 96.3569 21.8997C97.6252 23.6191 98.2592 25.5529 98.2592 27.4872C98.2592 29.314 97.7521 31.1404 96.6106 32.7525L117.41 25.0159L141 72.9393L84.0543 94L75.0499 75.4106C74.4154 77.3448 73.1471 79.0643 71.3716 80.4611C69.5962 81.8578 67.4402 82.7175 65.1572 83.0398C62.8742 83.362 60.4644 83.1472 58.1814 82.5027C56.0254 81.7504 53.9962 80.5685 52.6014 78.9569C51.2061 77.3448 50.3184 75.4106 50.0647 73.4768C49.8109 71.4351 50.3184 69.5008 51.333 67.6744C52.3476 65.8476 53.9962 64.3434 56.0253 63.3762C58.055 62.3017 60.3375 61.7642 62.7473 61.7642C64.7765 61.7642 66.8057 62.1943 68.7085 63.0536L60.5913 46.2914L82.9128 37.9099Z" fill="black"/>
<path fill-rule="evenodd" clip-rule="evenodd" d="M64.6351 35L8 55.6862L30.9843 103L88 82.4194L64.381 35.1061H64.6351V35Z" fill="#EEBF10"/>
<path fill-rule="evenodd" clip-rule="evenodd" d="M97 85.8224L68.5972 28L0 53.1772L27.8954 111L97 85.8224ZM65.0472 35.3609L8.49537 56.1645L31.4458 103.745L88.3778 83.0488L64.7935 35.4676H65.0472V35.3609Z" fill="black"/>
<path fill-rule="evenodd" clip-rule="evenodd" d="M87.6413 25.7858C85.3032 25.3377 83.0951 24.3301 81.4063 22.763C79.718 21.3077 78.549 19.4044 78.0292 17.3891C77.5099 15.3743 77.6399 13.2472 78.419 11.3439C79.1982 9.44097 80.6271 7.64954 82.5753 6.41811C84.3936 5.07476 86.7316 4.29096 89.0697 4.06714C91.4077 3.84333 93.8757 4.17905 96.0838 5.07476C98.2919 5.97047 100.11 7.42572 101.409 9.10479C102.708 10.8962 103.357 12.9115 103.357 14.9263C103.357 16.7177 102.708 18.5087 101.669 20.1882L122.841 12.1277L147 62.0575L88.6803 84L79.1982 64.8565C78.2891 67.0956 76.6008 68.9985 74.3927 70.4537C72.1846 71.7975 69.4567 72.5809 66.7293 72.5809C63.3522 72.5809 60.105 71.4614 57.767 69.3347C55.4289 67.3194 54 64.5204 54 61.6099C54 58.6994 55.299 55.9003 57.767 53.8851C60.2344 51.8703 63.3522 50.6388 66.7293 50.6388C68.8075 50.6388 70.8856 51.0865 72.8338 51.9822L64.5207 34.5178L87.6413 25.7858Z" fill="#2A8C5C"/>
<path fill-rule="evenodd" clip-rule="evenodd" d="M62.8869 45.496C60.2186 46.038 57.6769 47.0131 55.3895 48.5298C53.2292 49.9381 51.4503 51.7801 50.1795 53.947C48.9086 56.1139 48.1463 58.3891 48.0192 60.7726C47.8921 63.1561 48.4006 65.5396 49.4172 67.7065C50.4338 69.8734 52.086 71.8233 54.1191 73.4486C56.1523 75.0736 58.5663 76.2654 61.2352 77.0239C63.904 77.7824 66.6994 77.9991 69.4949 77.6742C72.2908 77.3488 74.9591 76.5907 77.2465 75.3989L84.7439 91L154 65.2147L125.535 6.38443L109.016 12.5598C107.872 8.65963 105.076 5.30098 101.264 2.91748C97.3247 0.642282 92.6228 -0.332869 87.9208 0.100337C83.2193 0.533977 78.8988 2.48427 75.7219 5.40928C72.5451 8.44302 70.7657 12.2349 70.6386 16.2438C70.6386 19.6024 71.7823 22.8523 74.0697 25.5612L56.2794 32.1702L62.8869 45.496ZM87.6665 26.7529C85.3796 26.3193 83.2194 25.3446 81.5671 23.8275C79.9154 22.3108 78.7716 20.5771 78.2631 18.6273C77.7551 16.677 77.8822 14.6184 78.6445 12.7768C79.4068 10.9348 80.8048 9.20114 82.7108 8.00939C84.4897 6.70933 86.7771 5.95122 89.0645 5.73419C91.3519 5.51758 93.7665 5.84249 95.9268 6.70933C98.087 7.57618 99.8659 8.98453 101.137 10.6099C102.408 12.3432 103.043 14.2935 103.043 16.2438C102.916 17.977 102.408 19.7107 101.391 21.3357L122.104 13.5349L145.74 61.8561L88.6836 83.0909L79.4068 64.5645C78.5174 66.7314 76.8656 68.5733 74.7054 69.9817C72.5451 71.2817 69.8763 72.0403 67.2074 72.0403C63.904 72.0403 60.7266 70.9568 58.4397 68.8983C56.1523 66.948 54.7543 64.2395 54.7543 61.4224C54.7543 58.6057 56.0252 55.8969 58.4397 53.947C60.7266 51.9967 63.904 50.805 67.2074 50.805C69.2411 50.805 71.2742 51.2382 73.1803 52.105L65.0472 35.2035L87.6665 26.7529Z" fill="black"/>
<path d="M159.39 57V4.85H167.09L186.69 32.01H182.84L202.09 4.85H209.79V57H201.6V14.58L204.68 15.42L185.01 42.3H184.17L164.92 15.42L167.65 14.58V57H159.39ZM237.582 57.84C233.802 57.84 230.442 56.9767 227.502 55.25C224.608 53.4767 222.345 51.0967 220.712 48.11C219.078 45.0767 218.262 41.6933 218.262 37.96C218.262 34.1333 219.078 30.75 220.712 27.81C222.392 24.87 224.632 22.56 227.432 20.88C230.232 19.1533 233.405 18.29 236.952 18.29C239.798 18.29 242.342 18.78 244.582 19.76C246.822 20.74 248.712 22.0933 250.252 23.82C251.792 25.5 252.958 27.4367 253.752 29.63C254.592 31.8233 255.012 34.1567 255.012 36.63C255.012 37.2367 254.988 37.8667 254.942 38.52C254.895 39.1733 254.802 39.78 254.662 40.34H224.492V34.04H250.182L246.402 36.91C246.868 34.6233 246.705 32.5933 245.912 30.82C245.165 29 243.998 27.5767 242.412 26.55C240.872 25.4767 239.052 24.94 236.952 24.94C234.852 24.94 232.985 25.4767 231.352 26.55C229.718 27.5767 228.458 29.07 227.572 31.03C226.685 32.9433 226.335 35.2767 226.522 38.03C226.288 40.5967 226.638 42.8367 227.572 44.75C228.552 46.6633 229.905 48.1567 231.632 49.23C233.405 50.3033 235.412 50.84 237.652 50.84C239.938 50.84 241.875 50.3267 243.462 49.3C245.095 48.2733 246.378 46.9433 247.312 45.31L253.752 48.46C253.005 50.2333 251.838 51.8433 250.252 53.29C248.712 54.69 246.845 55.81 244.652 56.65C242.505 57.4433 240.148 57.84 237.582 57.84ZM262.731 57V19.13H270.291V26.76L269.591 25.64C270.431 23.1667 271.785 21.3933 273.651 20.32C275.518 19.2 277.758 18.64 280.371 18.64H282.681V25.85H279.391C276.778 25.85 274.655 26.6667 273.021 28.3C271.435 29.8867 270.641 32.1733 270.641 35.16V57H262.731ZM299.433 57.84C296.866 57.84 294.603 57.3967 292.643 56.51C290.729 55.5767 289.236 54.3167 288.163 52.73C287.089 51.0967 286.553 49.1833 286.553 46.99C286.553 44.9367 286.996 43.0933 287.883 41.46C288.816 39.8267 290.239 38.45 292.153 37.33C294.066 36.21 296.469 35.4167 299.363 34.95L312.523 32.78V39.01L300.903 41.04C298.803 41.4133 297.263 42.09 296.283 43.07C295.303 44.0033 294.813 45.2167 294.813 46.71C294.813 48.1567 295.349 49.3467 296.423 50.28C297.543 51.1667 298.966 51.61 300.693 51.61C302.839 51.61 304.706 51.1433 306.293 50.21C307.926 49.2767 309.186 48.04 310.073 46.5C310.959 44.9133 311.403 43.1633 311.403 41.25V31.52C311.403 29.6533 310.703 28.1367 309.303 26.97C307.949 25.7567 306.129 25.15 303.843 25.15C301.743 25.15 299.899 25.71 298.313 26.83C296.773 27.9033 295.629 29.3033 294.883 31.03L288.303 27.74C289.003 25.8733 290.146 24.24 291.733 22.84C293.319 21.3933 295.163 20.2733 297.263 19.48C299.409 18.6867 301.673 18.29 304.053 18.29C307.039 18.29 309.676 18.85 311.963 19.97C314.296 21.09 316.093 22.6533 317.353 24.66C318.659 26.62 319.313 28.9067 319.313 31.52V57H311.753V50.14L313.363 50.35C312.476 51.89 311.333 53.22 309.933 54.34C308.579 55.46 307.016 56.3233 305.243 56.93C303.516 57.5367 301.579 57.84 299.433 57.84ZM342.561 57.84C338.688 57.84 335.281 56.8833 332.341 54.97C329.448 53.0567 327.418 50.49 326.251 47.27L332.341 44.4C333.368 46.5467 334.768 48.25 336.541 49.51C338.361 50.77 340.368 51.4 342.561 51.4C344.428 51.4 345.945 50.98 347.111 50.14C348.278 49.3 348.861 48.1567 348.861 46.71C348.861 45.7767 348.605 45.03 348.091 44.47C347.578 43.8633 346.925 43.3733 346.131 43C345.385 42.6267 344.615 42.3467 343.821 42.16L337.871 40.48C334.605 39.5467 332.155 38.1467 330.521 36.28C328.935 34.3667 328.141 32.15 328.141 29.63C328.141 27.3433 328.725 25.36 329.891 23.68C331.058 21.9533 332.668 20.6233 334.721 19.69C336.775 18.7567 339.085 18.29 341.651 18.29C345.105 18.29 348.185 19.1533 350.891 20.88C353.598 22.56 355.511 24.9167 356.631 27.95L350.541 30.82C349.795 29 348.605 27.5533 346.971 26.48C345.385 25.4067 343.588 24.87 341.581 24.87C339.855 24.87 338.478 25.29 337.451 26.13C336.425 26.9233 335.911 27.9733 335.911 29.28C335.911 30.1667 336.145 30.9133 336.611 31.52C337.078 32.08 337.685 32.5467 338.431 32.92C339.178 33.2467 339.948 33.5267 340.741 33.76L346.901 35.58C350.028 36.4667 352.431 37.8667 354.111 39.78C355.791 41.6467 356.631 43.8867 356.631 46.5C356.631 48.74 356.025 50.7233 354.811 52.45C353.645 54.13 352.011 55.46 349.911 56.44C347.811 57.3733 345.361 57.84 342.561 57.84Z" fill="#2A8C5C"/>
<path d="M297.65 99.6C295.383 99.6 293.65 99.0833 292.45 98.05C291.283 96.9833 290.5 95.3833 290.1 93.25H289.85C289.583 95.1833 288.917 96.6333 287.85 97.6C286.817 98.5333 285.45 99 283.75 99H281.5C281.167 103.133 279.833 106.167 277.5 108.1C275.2 110.067 271.75 111.05 267.15 111.05C262.15 111.05 258.333 109.867 255.7 107.5C253.1 105.167 251.8 101.9 251.8 97.7C251.8 96.2333 252 94.6833 252.4 93.05C252.833 91.3833 253.417 89.7 254.15 88L258.45 89.25C257.817 90.6167 257.3 91.9333 256.9 93.2C256.5 94.4667 256.3 95.6333 256.3 96.7C256.3 99 257.083 100.783 258.65 102.05C260.25 103.35 262.467 104 265.3 104H269C271.7 104 273.683 103.417 274.95 102.25C276.217 101.117 276.85 99.3 276.85 96.8C276.85 96.0333 276.767 95.1 276.6 94C276.433 92.9 276.2 91.65 275.9 90.25L275.05 86.3L279.9 85.35L281.25 92.45H285.3C286.833 92.45 287.917 92.1833 288.55 91.65C289.217 91.0833 289.55 90.1 289.55 88.7V85.35H294.45V88.7C294.45 90.2 294.683 91.2833 295.15 91.95C295.65 92.6167 296.383 92.95 297.35 92.95H298C298.8 92.95 299.433 92.7 299.9 92.2C300.367 91.6667 300.6 90.85 300.6 89.75C300.6 89.25 300.55 88.6333 300.45 87.9C300.35 87.1333 300.217 86.2333 300.05 85.2L299.65 82.6L304.5 81.85L304.9 84.4C305.033 85.4 305.133 86.35 305.2 87.25C305.267 88.1167 305.3 88.95 305.3 89.75C305.3 96.3167 302.75 99.6 297.65 99.6ZM310.231 62H315.581V99H310.231V62ZM315.799 104.45H317.749C320.949 104.45 323.232 103.717 324.599 102.25C325.965 100.817 326.632 98.7167 326.599 95.95C326.599 95.1167 326.549 94.25 326.449 93.35C326.349 92.4167 326.215 91.4667 326.049 90.5L324.999 84.15L329.849 83.35L330.599 87.75C330.899 89.4167 331.099 90.9833 331.199 92.45H335.849V97.65L334.499 99H331.199C330.965 100.8 330.515 102.433 329.849 103.9C329.182 105.367 328.299 106.617 327.199 107.65C326.099 108.717 324.765 109.533 323.199 110.1C321.632 110.7 319.832 111 317.799 111H315.799V104.45ZM355.733 105.75L343.733 111.25L342.383 108.3L354.333 102.75L355.733 105.75ZM341.64 96.15C340.873 97.2167 339.94 97.9667 338.84 98.4C337.74 98.8 336.29 99 334.49 99V93.8L335.84 92.45C337.107 92.45 338.023 92.2167 338.59 91.75C339.157 91.2833 339.657 90.4833 340.09 89.35L341.49 85.85C341.89 84.8167 342.357 83.85 342.89 82.95C343.423 82.05 344.04 81.2833 344.74 80.65C345.44 79.9833 346.24 79.4667 347.14 79.1C348.04 78.7333 349.073 78.55 350.24 78.55C353.14 78.55 355.357 79.75 356.89 82.15C358.423 84.55 359.19 87.8667 359.19 92.1V93.85L354.99 100.1L341.64 96.15ZM344.14 90.1L354.44 93.15V92.1C354.44 89.9 353.957 88.2 352.99 87C352.057 85.7667 350.79 85.15 349.19 85.15C348.023 85.15 347.073 85.4667 346.34 86.1C345.607 86.7333 345.023 87.65 344.59 88.85L344.14 90.1Z" fill="#2A8C5C"/>
</svg>
